<svg height="512pt" viewBox="0 -75 512 511" width="512pt" xmlns="http://www.w3.org/2000/svg"><path d="m132.375 128.332031c-8.507812-22.652343-30.472656-37.882812-54.667969-37.882812-24.210937 0-46.191406 15.230469-55.433593 40.804687l-22.273438 139.492188h32.632812v90.148437h89.945313v-90.148437h32.835937l-22.273437-139.492188zm0 0"/><path d="m122.578125 45.375c0-24.855469-20.015625-44.875-44.871094-44.875s-45.074219 20.019531-45.074219 44.875 20.21875 45.074219 45.074219 45.074219 44.871094-20.21875 44.871094-45.074219zm0 0"/><path d="m310.671875 128.332031c-8.511719-22.652343-30.476563-37.882812-54.671875-37.882812-24.210938 0-46.1875 15.230469-55.433594 40.804687l-22.273437 139.492188h32.632812v90.148437h89.949219v-90.148437h32.832031l-22.273437-139.492188zm0 0"/><path d="m301.074219 45.375c0-24.855469-20.21875-44.875-45.074219-44.875s-45.074219 20.019531-45.074219 44.875 20.21875 45.074219 45.074219 45.074219 45.074219-20.21875 45.074219-45.074219zm0 0"/><path d="m489.726562 131.253906-.761718-2.921875c-8.511719-22.652343-30.476563-37.882812-54.671875-37.882812-24.207031 0-46.1875 15.230469-55.433594 40.804687l-22.273437 139.492188h32.632812v90.148437h89.949219v-90.148437h32.832031zm0 0"/><path d="m479.167969 45.375c0-24.855469-20.019531-44.875-44.875-44.875s-45.074219 20.019531-45.074219 44.875 20.21875 45.074219 45.074219 45.074219 44.875-20.21875 44.875-45.074219zm0 0"/></svg>