<svg height="512pt" viewBox="-61 0 512 512" width="512pt" xmlns="http://www.w3.org/2000/svg"><path d="m195 90c24.8125 0 45-20.1875 45-45s-20.1875-45-45-45-45 20.1875-45 45 20.1875 45 45 45zm0 0"/><path d="m165 271h60v-45h30l-22.257812-106.058594c-3.582032-16.910156-18.195313-29.230468-35.472657-29.898437 0 0-4.597656.003906-4.628906.003906-17.269531.695313-31.800781 13-35.382813 29.90625l-22.257812 106.046875h30zm0 0"/><path d="m94.671875 380.117188-60-30 40.328125-40.328126v-8.789062h-30v-36.972656l-30.480469-20.320313c-9.082031 22.4375-14.519531 46.6875-14.519531 72.292969 0 26.59375 5.449219 51.898438 15.140625 75h68.648437zm0 0"/><path d="m210 361h41.453125l48.546875-24.273438v-75l89.261719 44.628907c-3.816407-77.0625-52.078125-142.796875-122.707031-170.59375l25.476562 120.238281h-37.03125v45h-120v-45h-37.03125l25.476562-120.238281c-40.679687 16.007812-73.660156 44.835937-95.421874 80.890625l46.976562 31.320312v23.027344h30v51.210938l-19.671875 19.671874 60 30-49.117187 49.117188h-65.375c32.167968 50.015625 86.578124 86.199219 149.164062 91v-91h30zm0 0"/><path d="m330 355.273438-71.453125 35.726562h-18.546875v60h-30v61c92.703125-7.109375 167.378906-80.953125 178.445312-172.507812l-58.445312-29.21875zm0 0"/></svg>