<?xml version="1.0" standalone="no"?>
<!DOCTYPE svg PUBLIC "-//W3C//DTD SVG 20010904//EN"
 "http://www.w3.org/TR/2001/REC-SVG-20010904/DTD/svg10.dtd">
<svg version="1.0" xmlns="http://www.w3.org/2000/svg"
 width="468pt" height="152pt" viewBox="0 0 468 152"
 preserveAspectRatio="xMidYMid meet">
<metadata>
Created by POTRACE VERSION, written by Peter Selinger 2001-2007
</metadata>
<g transform="translate(0,152) scale(0.027742,-0.027742)"
fill="#000000" stroke="none">
<path d="M5105 5284 c-44 -7 -116 -23 -160 -34 -44 -12 -134 -47 -199 -77 -66
-31 -149 -75 -184 -100 -35 -24 -99 -61 -142 -83 -44 -21 -149 -92 -236 -157
-86 -65 -184 -138 -218 -162 -33 -24 -90 -68 -126 -99 -36 -30 -94 -83 -130
-117 -36 -34 -79 -73 -96 -86 -17 -13 -71 -58 -120 -99 -49 -41 -136 -116
-194 -168 -58 -51 -128 -114 -156 -140 -28 -26 -109 -99 -180 -162 -71 -63
-225 -211 -342 -327 -117 -117 -216 -213 -220 -213 -4 0 -43 -35 -87 -78 -44
-42 -171 -171 -282 -287 -111 -115 -237 -246 -279 -290 -42 -44 -129 -138
-193 -210 -64 -71 -148 -161 -187 -200 -39 -38 -95 -99 -124 -135 -30 -36 -76
-90 -104 -120 -28 -31 -92 -103 -142 -160 -49 -58 -101 -121 -114 -140 -13
-19 -41 -55 -62 -80 -21 -25 -79 -94 -128 -153 -49 -59 -122 -153 -162 -208
-40 -55 -101 -139 -136 -187 -34 -48 -73 -103 -86 -122 -13 -19 -53 -83 -89
-141 -36 -58 -78 -136 -92 -175 -17 -44 -28 -96 -31 -144 -2 -41 -1 -92 2
-112 l6 -37 44 14 c24 7 64 30 88 51 25 22 73 51 108 66 35 15 112 46 173 70
78 30 120 52 145 77 19 20 49 48 66 62 17 14 39 37 48 51 17 26 17 27 -3 38
-18 9 -27 6 -55 -15 -19 -15 -46 -25 -65 -25 -19 0 -75 -20 -129 -47 -54 -25
-120 -61 -149 -80 -38 -25 -61 -33 -85 -31 -27 2 -34 8 -36 30 -2 14 8 48 22
75 13 27 61 99 105 159 44 60 111 147 148 193 37 45 88 111 113 146 25 34 72
98 104 141 33 43 87 109 120 145 34 36 88 99 121 139 33 40 92 108 130 152 39
44 84 96 100 117 17 21 49 62 73 91 23 29 61 84 83 121 22 38 43 69 47 69 4 0
37 26 74 58 37 31 97 99 134 150 37 51 128 155 203 231 75 77 184 190 243 252
58 63 125 137 147 166 23 28 57 61 76 73 19 12 45 34 58 50 13 15 53 53 87 84
35 32 73 69 84 84 12 15 80 83 152 152 72 69 197 189 277 267 81 78 177 164
214 190 37 26 126 105 198 174 71 69 150 138 175 154 25 16 86 66 135 111 50
44 101 87 115 94 14 7 60 41 103 74 43 34 106 83 140 109 34 27 91 77 127 111
36 35 83 72 105 84 22 11 72 44 110 72 39 28 106 68 150 90 44 22 108 57 142
79 35 21 80 42 100 46 21 3 63 18 93 31 30 14 89 37 130 51 64 22 90 26 180
24 84 -1 110 -5 130 -20 14 -10 33 -32 43 -50 11 -17 21 -57 24 -89 3 -33 -2
-94 -11 -147 -10 -49 -35 -145 -56 -212 -21 -67 -69 -201 -105 -298 -36 -98
-92 -229 -124 -294 -32 -64 -64 -132 -70 -152 -6 -20 -25 -58 -42 -84 -17 -26
-39 -70 -50 -97 -10 -27 -48 -100 -84 -162 -36 -62 -65 -117 -65 -122 0 -5 -8
-25 -19 -44 -10 -19 -58 -109 -106 -200 -48 -90 -96 -186 -106 -212 -10 -26
-30 -65 -43 -87 -14 -21 -57 -101 -97 -177 -39 -77 -86 -166 -103 -199 -17
-33 -50 -92 -73 -130 -23 -39 -60 -111 -83 -162 -22 -50 -57 -120 -78 -155
-21 -35 -48 -88 -60 -118 -13 -30 -45 -94 -72 -141 -28 -48 -50 -90 -50 -94 0
-4 -12 -30 -26 -59 -14 -28 -39 -84 -55 -123 -16 -40 -42 -97 -59 -126 -16
-29 -39 -80 -50 -112 -11 -32 -31 -78 -45 -101 -14 -24 -46 -94 -71 -156 -26
-62 -53 -131 -61 -152 -8 -22 -34 -81 -58 -130 -24 -50 -70 -167 -103 -261
-33 -93 -65 -195 -72 -226 -11 -51 -11 -61 6 -95 11 -21 31 -45 46 -54 24 -13
30 -13 63 3 27 13 41 29 56 65 11 26 39 83 61 127 23 44 58 103 79 130 20 28
44 67 53 88 8 20 22 40 31 43 9 4 42 41 74 83 32 42 91 114 130 161 40 47 96
112 124 145 29 33 64 76 77 95 13 19 47 60 75 90 28 30 70 82 92 115 23 33 62
85 87 115 25 30 63 78 84 105 22 28 65 77 97 110 32 33 68 84 81 114 13 30 42
73 64 97 22 24 40 48 40 52 0 5 50 61 111 123 61 63 131 141 157 174 25 33 69
87 97 119 27 32 121 136 208 230 87 94 174 183 194 198 19 15 45 39 57 55 12
15 58 64 101 108 44 44 113 107 153 140 40 33 92 75 115 93 23 19 58 48 77 66
19 18 67 51 105 73 39 23 99 55 135 71 36 17 95 40 133 51 37 12 80 21 95 21
15 0 41 -9 59 -19 25 -16 33 -30 42 -71 6 -28 11 -67 11 -87 0 -19 7 -78 16
-129 15 -87 15 -103 0 -207 -9 -61 -23 -137 -31 -167 -8 -30 -19 -86 -25 -125
-5 -38 -22 -113 -35 -165 -14 -52 -34 -124 -44 -160 -11 -36 -34 -112 -51
-170 -17 -58 -41 -127 -52 -155 -11 -27 -31 -77 -44 -110 -14 -33 -41 -94 -61
-135 -19 -41 -50 -111 -68 -156 -18 -44 -70 -153 -114 -241 -44 -88 -87 -179
-95 -201 -8 -23 -33 -65 -54 -94 -22 -29 -60 -94 -85 -144 -25 -50 -49 -107
-52 -127 -4 -20 -4 -52 -1 -71 4 -18 17 -45 31 -60 17 -19 34 -26 60 -26 26 0
43 7 61 27 13 14 31 49 38 77 8 28 17 62 20 76 3 14 26 53 51 87 25 35 64 93
86 130 23 38 53 82 69 98 15 17 53 70 85 119 32 49 86 119 120 155 34 36 78
94 99 128 20 35 46 69 56 76 10 7 44 49 75 92 32 44 84 109 117 145 33 36 88
106 121 155 33 50 80 108 103 130 24 22 96 97 161 166 65 70 172 175 238 235
65 60 146 135 179 167 34 34 89 74 129 94 49 24 73 31 80 24 8 -8 3 -47 -17
-133 -15 -68 -48 -172 -73 -233 -25 -60 -56 -138 -69 -172 -13 -35 -35 -80
-48 -100 -13 -21 -32 -65 -41 -98 -9 -33 -36 -103 -60 -155 -24 -52 -64 -148
-89 -212 -26 -65 -46 -123 -46 -129 0 -6 -18 -53 -40 -105 -22 -51 -48 -123
-59 -161 -11 -37 -34 -115 -51 -173 -22 -76 -33 -140 -40 -230 -5 -78 -5 -139
1 -162 5 -20 25 -53 43 -73 28 -30 40 -35 78 -35 31 0 51 6 66 20 14 13 22 33
22 53 0 18 -9 46 -20 62 -13 20 -20 47 -20 79 0 27 9 105 21 175 11 69 39 185
61 256 22 72 53 160 69 197 16 37 40 103 53 145 13 43 42 121 64 174 22 53 51
114 65 135 13 22 34 66 46 99 12 33 39 94 60 135 21 41 42 86 46 100 4 14 34
88 65 165 48 116 63 166 84 287 18 97 24 161 20 188 -4 23 -17 54 -30 70 -13
15 -37 33 -54 40 -17 7 -50 10 -75 8 -28 -4 -71 -22 -122 -53 -43 -26 -103
-62 -133 -80 -30 -19 -71 -46 -90 -60 -19 -14 -96 -83 -170 -153 -74 -70 -169
-161 -210 -202 -41 -42 -113 -124 -160 -184 -47 -59 -104 -124 -128 -143 -24
-19 -55 -54 -70 -77 -15 -22 -40 -59 -57 -81 -17 -22 -75 -95 -128 -162 -53
-67 -101 -124 -107 -128 -5 -3 -10 -1 -10 6 0 6 20 69 44 138 25 69 66 173 91
231 26 58 60 152 76 210 15 58 37 128 48 155 10 28 27 95 36 150 9 55 21 120
27 145 5 25 18 115 28 200 15 138 16 173 5 298 -7 78 -21 165 -30 194 -10 29
-28 74 -41 99 -19 38 -32 50 -73 68 -28 12 -70 24 -94 27 -24 4 -68 1 -99 -5
-31 -7 -91 -26 -135 -42 -43 -17 -123 -52 -178 -79 -61 -30 -148 -86 -225
-144 -69 -53 -159 -124 -200 -158 -41 -34 -136 -124 -210 -198 -74 -74 -209
-218 -300 -318 -91 -101 -185 -207 -210 -237 -25 -29 -90 -105 -145 -169 -55
-64 -122 -147 -150 -183 -27 -37 -80 -99 -116 -137 -36 -39 -86 -97 -110 -129
-24 -32 -62 -82 -84 -111 -22 -30 -59 -76 -82 -102 -23 -27 -60 -71 -83 -99
-22 -27 -94 -120 -160 -205 -66 -85 -147 -186 -180 -225 -33 -38 -72 -90 -87
-115 -14 -25 -54 -72 -87 -105 l-61 -59 -3 32 c-2 18 4 56 14 85 9 29 36 99
61 155 24 57 53 132 64 165 11 34 33 87 48 117 16 30 32 66 36 80 4 14 42 95
83 180 41 85 94 185 118 222 23 36 54 99 69 140 14 40 44 102 65 138 22 36 46
82 55 102 8 21 33 65 55 99 22 34 40 68 40 74 0 7 24 59 53 116 30 57 70 131
90 164 20 33 53 88 74 123 21 35 59 98 86 140 26 42 57 102 68 132 11 30 57
125 101 210 44 85 86 171 93 191 7 20 29 58 47 85 19 27 60 108 92 179 32 72
66 141 76 155 9 14 38 72 65 130 26 58 55 119 65 135 10 17 28 57 40 90 12 33
51 121 86 195 53 113 72 168 115 340 47 188 51 213 47 296 -3 82 -7 96 -38
147 -19 31 -52 69 -74 86 -23 16 -72 38 -110 50 -37 11 -73 20 -80 20 -6 -1
-47 -7 -91 -15z"/>
<path d="M12330 3939 c-41 -10 -120 -42 -175 -69 -56 -28 -142 -84 -195 -126
-52 -41 -119 -94 -149 -117 -29 -23 -117 -110 -195 -192 -82 -87 -189 -216
-254 -305 -62 -85 -132 -179 -155 -209 -23 -30 -62 -86 -87 -126 -25 -39 -62
-98 -83 -131 -22 -32 -47 -70 -57 -84 -9 -14 -27 -44 -38 -67 -12 -22 -35 -52
-52 -67 -20 -16 -44 -26 -64 -26 -19 0 -45 -9 -59 -20 -14 -11 -56 -80 -94
-153 -38 -72 -79 -155 -91 -183 -12 -29 -29 -99 -37 -155 -9 -57 -23 -126 -31
-152 -9 -27 -38 -94 -64 -150 -26 -56 -60 -142 -75 -192 -15 -49 -43 -133 -62
-185 -33 -89 -36 -105 -41 -248 -3 -102 -1 -178 8 -225 6 -40 25 -99 41 -133
18 -38 49 -80 87 -116 40 -39 70 -59 95 -63 20 -4 57 -5 84 -2 26 2 86 12 133
21 55 11 98 26 122 43 21 14 75 39 120 55 45 16 103 44 129 64 26 19 69 41 96
49 37 11 67 33 135 99 55 53 109 95 148 115 35 17 66 28 70 26 5 -3 14 -28 20
-56 7 -29 25 -66 42 -85 18 -20 46 -38 69 -44 30 -8 60 -7 123 3 70 12 115 31
282 113 142 71 214 113 252 146 29 27 55 48 58 48 3 0 14 -5 24 -10 10 -6 28
-27 40 -48 12 -21 31 -44 43 -52 15 -9 61 -16 135 -18 109 -4 116 -3 210 32
53 19 122 42 153 50 30 9 71 26 90 39 19 12 64 40 101 60 45 25 87 60 125 104
32 36 84 94 115 128 31 35 66 81 77 103 11 22 33 51 49 64 16 13 43 30 61 37
26 12 34 11 56 -3 13 -9 28 -28 31 -42 4 -16 -1 -50 -11 -83 -10 -31 -35 -90
-56 -131 -20 -41 -56 -97 -79 -125 -23 -27 -48 -62 -56 -77 -8 -15 -17 -48
-20 -72 -6 -41 -4 -48 24 -75 21 -22 40 -31 63 -31 18 0 64 9 103 21 39 11
116 36 171 54 55 19 129 45 165 60 36 14 90 39 121 55 31 17 66 30 77 30 12 0
25 -8 30 -17 5 -10 13 -36 17 -58 3 -21 13 -51 20 -65 8 -15 31 -38 52 -53 35
-24 48 -27 128 -27 48 0 138 9 199 20 61 11 136 25 166 31 30 6 81 26 112 44
32 19 75 39 95 44 21 6 56 11 79 11 28 0 54 -8 80 -26 21 -14 50 -36 64 -49
14 -12 36 -28 48 -35 13 -6 70 -18 125 -26 72 -11 142 -13 237 -9 74 3 160 11
190 16 30 6 79 19 108 30 29 10 75 19 102 19 27 0 73 9 102 20 29 10 94 26
143 35 50 8 117 24 151 35 34 12 82 34 108 50 25 16 58 33 74 36 15 4 46 17
69 30 25 15 53 42 68 68 14 23 25 52 25 64 0 11 -7 28 -16 36 -8 9 -22 16 -31
16 -9 0 -36 -23 -62 -51 -28 -32 -68 -62 -104 -79 -32 -16 -102 -42 -155 -59
-53 -17 -167 -48 -252 -70 -85 -21 -197 -47 -248 -56 -51 -9 -146 -21 -210
-26 -64 -6 -161 -9 -216 -7 -77 3 -113 9 -151 26 -27 13 -60 33 -72 44 -13 12
-23 31 -23 43 0 11 7 31 16 43 9 13 55 41 102 63 48 22 120 65 160 96 40 31
79 68 86 82 8 14 17 60 20 101 6 62 4 81 -11 110 -10 19 -30 39 -44 44 -14 5
-42 6 -62 2 -20 -4 -71 -30 -114 -59 -43 -28 -105 -79 -138 -112 -43 -43 -74
-88 -108 -155 -26 -52 -47 -109 -47 -125 0 -17 -7 -40 -15 -52 -10 -14 -45
-32 -96 -48 -44 -14 -87 -25 -95 -25 -8 0 -43 -9 -77 -21 -34 -11 -102 -29
-152 -40 -49 -11 -118 -24 -152 -28 -39 -6 -76 -6 -103 1 -22 6 -49 22 -60 36
-11 13 -20 38 -20 55 0 18 17 59 42 99 34 57 50 74 92 95 28 14 81 48 119 75
38 28 70 60 73 73 3 13 4 34 2 46 -2 18 -10 25 -34 27 -16 2 -41 -1 -55 -6
-13 -6 -71 -47 -128 -93 -56 -46 -122 -99 -145 -117 -22 -18 -101 -62 -175
-98 -73 -36 -163 -77 -200 -90 -36 -14 -94 -36 -127 -49 -34 -14 -84 -30 -112
-36 -38 -8 -56 -7 -72 1 -17 9 -20 17 -15 37 3 14 19 45 34 67 16 23 41 66 56
96 15 30 41 75 58 99 16 24 36 64 44 90 8 28 11 62 7 86 -3 22 -19 65 -35 97
-16 31 -43 67 -61 80 -25 18 -46 23 -90 23 -46 0 -61 -4 -82 -24 -14 -13 -55
-71 -91 -128 -36 -57 -87 -131 -115 -164 -27 -34 -73 -82 -102 -108 -29 -26
-102 -74 -163 -107 -60 -33 -139 -72 -175 -87 -36 -14 -108 -36 -160 -47 -52
-12 -108 -19 -124 -16 -16 4 -38 14 -48 23 -11 10 -18 30 -18 51 0 19 13 59
30 91 21 39 58 82 118 135 48 43 96 94 106 113 11 20 21 57 24 83 3 39 0 52
-17 69 -11 11 -28 21 -36 21 -8 0 -59 -41 -113 -91 -60 -54 -109 -109 -124
-137 -14 -26 -29 -60 -32 -77 -4 -16 -17 -45 -29 -63 -12 -18 -69 -66 -127
-106 -58 -40 -127 -85 -155 -101 -27 -16 -79 -43 -115 -60 -36 -17 -110 -49
-165 -71 -73 -28 -114 -39 -153 -38 -40 0 -58 5 -74 22 -20 20 -21 24 -9 91 9
50 26 94 62 155 27 48 49 89 49 92 0 4 16 28 35 55 19 26 53 85 75 129 23 45
58 100 79 123 21 23 50 60 64 82 16 23 27 54 27 72 0 20 -8 41 -20 53 -11 11
-28 20 -38 20 -10 0 -27 -6 -38 -14 -11 -8 -32 -32 -46 -53 -14 -21 -64 -103
-112 -183 -48 -80 -113 -181 -146 -225 -32 -44 -75 -105 -96 -135 -20 -30 -78
-95 -128 -144 -50 -49 -122 -110 -161 -135 -38 -26 -100 -68 -137 -93 -37 -26
-102 -62 -145 -81 -43 -20 -133 -54 -200 -77 -88 -29 -139 -41 -185 -42 -40 0
-75 5 -94 15 -17 9 -46 33 -66 55 -20 22 -45 65 -57 96 -17 46 -21 79 -21 174
0 64 5 158 11 207 7 63 20 111 42 160 18 38 48 117 67 175 28 84 40 108 62
119 24 14 33 13 105 -12 57 -20 97 -27 149 -27 52 0 96 8 162 30 50 17 99 30
109 30 10 0 43 14 73 31 30 16 98 47 150 69 52 21 136 58 185 82 50 24 146 78
215 119 69 41 155 99 190 129 36 30 85 76 110 101 25 25 66 59 91 76 25 17 61
49 80 70 19 22 60 75 91 119 31 44 67 89 79 100 12 10 38 44 59 74 21 31 52
86 68 123 17 37 35 67 40 67 5 0 22 19 37 43 16 23 36 54 47 69 10 15 36 69
59 120 22 51 54 119 70 151 16 32 34 79 40 105 5 26 16 83 24 127 7 44 19 103
25 132 8 38 8 78 0 150 -7 66 -18 114 -35 149 -15 30 -46 68 -76 94 -29 24
-68 52 -88 62 -26 13 -57 18 -121 17 -50 0 -116 -8 -160 -20z m245 -138 c22
-10 52 -31 67 -47 15 -16 34 -46 43 -67 9 -23 16 -67 16 -110 0 -40 -7 -114
-15 -164 -8 -51 -31 -138 -51 -193 -20 -55 -58 -146 -86 -202 -27 -57 -67
-136 -88 -176 -20 -39 -49 -89 -64 -110 -15 -20 -55 -80 -88 -132 -34 -52 -89
-126 -123 -165 -33 -38 -101 -110 -151 -160 -50 -49 -118 -114 -153 -143 -34
-29 -106 -82 -159 -118 -54 -36 -201 -117 -328 -181 -126 -64 -257 -124 -290
-133 -33 -10 -98 -32 -145 -48 -47 -16 -112 -33 -146 -37 -44 -5 -71 -3 -96 8
-20 8 -45 30 -58 51 -18 30 -22 48 -18 95 3 45 17 83 63 177 33 65 80 153 106
194 25 41 60 98 77 126 18 29 41 76 51 107 11 30 25 66 32 79 6 12 41 57 76
99 35 42 78 99 96 127 18 28 57 90 87 138 30 49 79 111 109 138 29 28 69 76
88 106 19 30 68 88 109 127 40 40 86 92 102 116 17 24 77 84 134 133 56 50
143 121 191 158 49 37 132 96 186 130 54 35 108 70 122 77 13 8 56 17 94 20
39 4 93 5 120 2 28 -2 68 -12 90 -22z m2886 -2341 c10 -6 19 -19 19 -29 0 -11
-37 -57 -83 -104 -45 -47 -93 -90 -107 -95 -16 -6 -32 -6 -43 0 -14 7 -17 16
-12 36 3 14 22 47 40 72 18 25 48 59 67 77 18 18 44 36 58 42 14 5 29 10 33
10 5 1 17 -4 28 -9z"/>
<path d="M14944 2367 c-20 -18 -28 -35 -31 -74 -4 -40 0 -62 22 -112 16 -34
37 -68 47 -75 11 -8 28 -11 39 -9 11 3 26 18 35 34 8 16 17 49 20 73 4 24 3
65 0 89 -4 26 -17 56 -31 71 -13 15 -35 26 -49 26 -14 0 -37 -10 -52 -23z"/>
<path d="M8456 1150 c-18 -17 -42 -49 -51 -73 -9 -23 -25 -80 -36 -127 -10
-47 -19 -104 -19 -127 0 -30 6 -49 20 -63 11 -11 26 -20 33 -20 7 0 21 6 31
13 10 8 20 34 25 67 4 30 22 94 39 142 17 48 38 101 47 117 8 17 15 41 15 54
0 12 -5 28 -12 35 -7 7 -22 12 -35 12 -12 0 -38 -14 -57 -30z"/>
</g>
</svg>
